<mxfile host="app.diagrams.net" modified="2023-02-15T02:12:14.557Z" agent="5.0 (Windows NT 10.0; Win64; x64) AppleWebKit/537.36 (KHTML, like Gecko) Chrome/108.0.0.0 Safari/537.36 OPR/94.0.0.0" etag="zcBjL-QK1MT_HbswLspY" version="20.8.20" type="github">
  <diagram id="C5RBs43oDa-KdzZeNtuy" name="Page-1">
    <mxGraphModel dx="1393" dy="758" grid="1" gridSize="10" guides="1" tooltips="1" connect="1" arrows="1" fold="1" page="1" pageScale="1" pageWidth="827" pageHeight="1169" math="0" shadow="0">
      <root>
        <mxCell id="WIyWlLk6GJQsqaUBKTNV-0" />
        <mxCell id="WIyWlLk6GJQsqaUBKTNV-1" parent="WIyWlLk6GJQsqaUBKTNV-0" />
        <mxCell id="EuwhNwrtyqTBBsB_Qogl-10" style="edgeStyle=orthogonalEdgeStyle;rounded=0;orthogonalLoop=1;jettySize=auto;html=1;" edge="1" parent="WIyWlLk6GJQsqaUBKTNV-1" source="WIyWlLk6GJQsqaUBKTNV-3" target="EuwhNwrtyqTBBsB_Qogl-6">
          <mxGeometry relative="1" as="geometry" />
        </mxCell>
        <mxCell id="WIyWlLk6GJQsqaUBKTNV-3" value="Recoger la ropa sucia" style="rounded=1;whiteSpace=wrap;html=1;fontSize=12;glass=0;strokeWidth=1;shadow=0;" parent="WIyWlLk6GJQsqaUBKTNV-1" vertex="1">
          <mxGeometry x="354" y="130" width="120" height="40" as="geometry" />
        </mxCell>
        <mxCell id="EuwhNwrtyqTBBsB_Qogl-8" style="edgeStyle=orthogonalEdgeStyle;rounded=0;orthogonalLoop=1;jettySize=auto;html=1;" edge="1" parent="WIyWlLk6GJQsqaUBKTNV-1" source="EuwhNwrtyqTBBsB_Qogl-0" target="WIyWlLk6GJQsqaUBKTNV-3">
          <mxGeometry relative="1" as="geometry" />
        </mxCell>
        <mxCell id="EuwhNwrtyqTBBsB_Qogl-0" value="INICIO" style="ellipse;whiteSpace=wrap;html=1;" vertex="1" parent="WIyWlLk6GJQsqaUBKTNV-1">
          <mxGeometry x="354" y="20" width="120" height="80" as="geometry" />
        </mxCell>
        <mxCell id="EuwhNwrtyqTBBsB_Qogl-12" style="edgeStyle=orthogonalEdgeStyle;rounded=0;orthogonalLoop=1;jettySize=auto;html=1;entryX=0.5;entryY=0;entryDx=0;entryDy=0;" edge="1" parent="WIyWlLk6GJQsqaUBKTNV-1" source="EuwhNwrtyqTBBsB_Qogl-6" target="EuwhNwrtyqTBBsB_Qogl-13">
          <mxGeometry relative="1" as="geometry">
            <mxPoint x="414" y="310" as="targetPoint" />
          </mxGeometry>
        </mxCell>
        <mxCell id="EuwhNwrtyqTBBsB_Qogl-6" value="Dirigirse hacia la lavadora&amp;nbsp;" style="rounded=1;whiteSpace=wrap;html=1;" vertex="1" parent="WIyWlLk6GJQsqaUBKTNV-1">
          <mxGeometry x="354" y="200" width="120" height="60" as="geometry" />
        </mxCell>
        <mxCell id="EuwhNwrtyqTBBsB_Qogl-15" style="edgeStyle=orthogonalEdgeStyle;rounded=0;orthogonalLoop=1;jettySize=auto;html=1;" edge="1" parent="WIyWlLk6GJQsqaUBKTNV-1" source="EuwhNwrtyqTBBsB_Qogl-13" target="EuwhNwrtyqTBBsB_Qogl-14">
          <mxGeometry relative="1" as="geometry" />
        </mxCell>
        <mxCell id="EuwhNwrtyqTBBsB_Qogl-13" value="Depositar la ropa en la lavadora&amp;nbsp;&amp;nbsp;" style="rounded=1;whiteSpace=wrap;html=1;" vertex="1" parent="WIyWlLk6GJQsqaUBKTNV-1">
          <mxGeometry x="354" y="280" width="120" height="60" as="geometry" />
        </mxCell>
        <mxCell id="EuwhNwrtyqTBBsB_Qogl-22" style="edgeStyle=orthogonalEdgeStyle;rounded=0;orthogonalLoop=1;jettySize=auto;html=1;entryX=0.5;entryY=0;entryDx=0;entryDy=0;" edge="1" parent="WIyWlLk6GJQsqaUBKTNV-1" source="EuwhNwrtyqTBBsB_Qogl-14" target="EuwhNwrtyqTBBsB_Qogl-16">
          <mxGeometry relative="1" as="geometry" />
        </mxCell>
        <mxCell id="EuwhNwrtyqTBBsB_Qogl-14" value="Agregar líquidos para limpieza (jabón)&amp;nbsp;" style="rounded=1;whiteSpace=wrap;html=1;" vertex="1" parent="WIyWlLk6GJQsqaUBKTNV-1">
          <mxGeometry x="354" y="370" width="120" height="60" as="geometry" />
        </mxCell>
        <mxCell id="EuwhNwrtyqTBBsB_Qogl-23" style="edgeStyle=orthogonalEdgeStyle;rounded=0;orthogonalLoop=1;jettySize=auto;html=1;entryX=0.5;entryY=0;entryDx=0;entryDy=0;" edge="1" parent="WIyWlLk6GJQsqaUBKTNV-1" source="EuwhNwrtyqTBBsB_Qogl-16" target="EuwhNwrtyqTBBsB_Qogl-17">
          <mxGeometry relative="1" as="geometry" />
        </mxCell>
        <mxCell id="EuwhNwrtyqTBBsB_Qogl-16" value="Lavar ropa" style="rounded=1;whiteSpace=wrap;html=1;" vertex="1" parent="WIyWlLk6GJQsqaUBKTNV-1">
          <mxGeometry x="100" y="470" width="120" height="60" as="geometry" />
        </mxCell>
        <mxCell id="EuwhNwrtyqTBBsB_Qogl-24" style="edgeStyle=orthogonalEdgeStyle;rounded=0;orthogonalLoop=1;jettySize=auto;html=1;entryX=0.5;entryY=0;entryDx=0;entryDy=0;" edge="1" parent="WIyWlLk6GJQsqaUBKTNV-1" source="EuwhNwrtyqTBBsB_Qogl-17" target="EuwhNwrtyqTBBsB_Qogl-18">
          <mxGeometry relative="1" as="geometry" />
        </mxCell>
        <mxCell id="EuwhNwrtyqTBBsB_Qogl-17" value="Sacar ropa de lavadora" style="rounded=1;whiteSpace=wrap;html=1;" vertex="1" parent="WIyWlLk6GJQsqaUBKTNV-1">
          <mxGeometry x="650" y="520" width="120" height="60" as="geometry" />
        </mxCell>
        <mxCell id="EuwhNwrtyqTBBsB_Qogl-25" style="edgeStyle=orthogonalEdgeStyle;rounded=0;orthogonalLoop=1;jettySize=auto;html=1;entryX=0.5;entryY=0;entryDx=0;entryDy=0;" edge="1" parent="WIyWlLk6GJQsqaUBKTNV-1" source="EuwhNwrtyqTBBsB_Qogl-18" target="EuwhNwrtyqTBBsB_Qogl-19">
          <mxGeometry relative="1" as="geometry" />
        </mxCell>
        <mxCell id="EuwhNwrtyqTBBsB_Qogl-18" value="Llevar la ropa&amp;nbsp; a lugar de secado" style="rounded=1;whiteSpace=wrap;html=1;" vertex="1" parent="WIyWlLk6GJQsqaUBKTNV-1">
          <mxGeometry x="100" y="570" width="120" height="60" as="geometry" />
        </mxCell>
        <mxCell id="EuwhNwrtyqTBBsB_Qogl-36" style="edgeStyle=orthogonalEdgeStyle;rounded=0;orthogonalLoop=1;jettySize=auto;html=1;entryX=0.5;entryY=0;entryDx=0;entryDy=0;" edge="1" parent="WIyWlLk6GJQsqaUBKTNV-1" source="EuwhNwrtyqTBBsB_Qogl-19" target="EuwhNwrtyqTBBsB_Qogl-27">
          <mxGeometry relative="1" as="geometry" />
        </mxCell>
        <mxCell id="EuwhNwrtyqTBBsB_Qogl-19" value="Secar la ropa" style="rounded=1;whiteSpace=wrap;html=1;" vertex="1" parent="WIyWlLk6GJQsqaUBKTNV-1">
          <mxGeometry x="650" y="620" width="120" height="60" as="geometry" />
        </mxCell>
        <mxCell id="EuwhNwrtyqTBBsB_Qogl-21" value="FIN" style="ellipse;whiteSpace=wrap;html=1;" vertex="1" parent="WIyWlLk6GJQsqaUBKTNV-1">
          <mxGeometry x="370" y="1010" width="120" height="80" as="geometry" />
        </mxCell>
        <mxCell id="EuwhNwrtyqTBBsB_Qogl-37" style="edgeStyle=orthogonalEdgeStyle;rounded=0;orthogonalLoop=1;jettySize=auto;html=1;entryX=0.575;entryY=0;entryDx=0;entryDy=0;entryPerimeter=0;" edge="1" parent="WIyWlLk6GJQsqaUBKTNV-1" source="EuwhNwrtyqTBBsB_Qogl-27" target="EuwhNwrtyqTBBsB_Qogl-28">
          <mxGeometry relative="1" as="geometry" />
        </mxCell>
        <mxCell id="EuwhNwrtyqTBBsB_Qogl-27" value="Recoger ropa de lugar de secado" style="rounded=1;whiteSpace=wrap;html=1;" vertex="1" parent="WIyWlLk6GJQsqaUBKTNV-1">
          <mxGeometry x="100" y="670" width="120" height="60" as="geometry" />
        </mxCell>
        <mxCell id="EuwhNwrtyqTBBsB_Qogl-38" style="edgeStyle=orthogonalEdgeStyle;rounded=0;orthogonalLoop=1;jettySize=auto;html=1;entryX=0.5;entryY=0;entryDx=0;entryDy=0;" edge="1" parent="WIyWlLk6GJQsqaUBKTNV-1" source="EuwhNwrtyqTBBsB_Qogl-28" target="EuwhNwrtyqTBBsB_Qogl-29">
          <mxGeometry relative="1" as="geometry" />
        </mxCell>
        <mxCell id="EuwhNwrtyqTBBsB_Qogl-28" value="Llevar ropa a lugar&amp;nbsp; de planchado" style="rounded=1;whiteSpace=wrap;html=1;" vertex="1" parent="WIyWlLk6GJQsqaUBKTNV-1">
          <mxGeometry x="650" y="720" width="120" height="60" as="geometry" />
        </mxCell>
        <mxCell id="EuwhNwrtyqTBBsB_Qogl-39" style="edgeStyle=orthogonalEdgeStyle;rounded=0;orthogonalLoop=1;jettySize=auto;html=1;entryX=0.5;entryY=0;entryDx=0;entryDy=0;" edge="1" parent="WIyWlLk6GJQsqaUBKTNV-1" source="EuwhNwrtyqTBBsB_Qogl-29" target="EuwhNwrtyqTBBsB_Qogl-30">
          <mxGeometry relative="1" as="geometry" />
        </mxCell>
        <mxCell id="EuwhNwrtyqTBBsB_Qogl-29" value="Planchar la ropa" style="rounded=1;whiteSpace=wrap;html=1;" vertex="1" parent="WIyWlLk6GJQsqaUBKTNV-1">
          <mxGeometry x="100" y="770" width="120" height="60" as="geometry" />
        </mxCell>
        <mxCell id="EuwhNwrtyqTBBsB_Qogl-43" value="" style="edgeStyle=orthogonalEdgeStyle;rounded=0;orthogonalLoop=1;jettySize=auto;html=1;" edge="1" parent="WIyWlLk6GJQsqaUBKTNV-1" source="EuwhNwrtyqTBBsB_Qogl-30" target="EuwhNwrtyqTBBsB_Qogl-31">
          <mxGeometry relative="1" as="geometry" />
        </mxCell>
        <mxCell id="EuwhNwrtyqTBBsB_Qogl-30" value="Llevar la ropa a armario" style="rounded=1;whiteSpace=wrap;html=1;" vertex="1" parent="WIyWlLk6GJQsqaUBKTNV-1">
          <mxGeometry x="370" y="820" width="120" height="60" as="geometry" />
        </mxCell>
        <mxCell id="EuwhNwrtyqTBBsB_Qogl-44" value="" style="edgeStyle=orthogonalEdgeStyle;rounded=0;orthogonalLoop=1;jettySize=auto;html=1;" edge="1" parent="WIyWlLk6GJQsqaUBKTNV-1" source="EuwhNwrtyqTBBsB_Qogl-31" target="EuwhNwrtyqTBBsB_Qogl-21">
          <mxGeometry relative="1" as="geometry" />
        </mxCell>
        <mxCell id="EuwhNwrtyqTBBsB_Qogl-31" value="Almacenar la ropa&amp;nbsp;" style="rounded=1;whiteSpace=wrap;html=1;" vertex="1" parent="WIyWlLk6GJQsqaUBKTNV-1">
          <mxGeometry x="370" y="910" width="120" height="60" as="geometry" />
        </mxCell>
      </root>
    </mxGraphModel>
  </diagram>
</mxfile>
